<?xml version="1.0" encoding="utf-8"?>
<!-- Generator: Adobe Illustrator 25.0.0, SVG Export Plug-In . SVG Version: 6.00 Build 0)  -->
<svg version="1.1"
	 id="svg935" xmlns:cc="http://creativecommons.org/ns#" xmlns:dc="http://purl.org/dc/elements/1.1/" xmlns:inkscape="http://www.inkscape.org/namespaces/inkscape" xmlns:rdf="http://www.w3.org/1999/02/22-rdf-syntax-ns#" xmlns:sodipodi="http://sodipodi.sourceforge.net/DTD/sodipodi-0.dtd" xmlns:svg="http://www.w3.org/2000/svg"
	 xmlns="http://www.w3.org/2000/svg" xmlns:xlink="http://www.w3.org/1999/xlink" x="0px" y="0px" viewBox="0 0 500 430"
	 style="enable-background:new 0 0 500 430;" xml:space="preserve">
<style type="text/css">
	.st0{opacity:0.6;fill:#FFFFFF;}
	.st1{opacity:0.4;fill:#FFFFFF;}
	.st2{fill:#FFFFFF;}
	.st3{opacity:0.8;fill:#FFFFFF;}
</style>
<g>
	<path class="st0" d="M103.1,235.9c14.4,5.4,28.9,8.8,44.1,9.1c29.5,0.6,57-7.2,83.3-19.9c5.7-2.7,11.3-5.8,16.9-8.7l0,0l3.5-1.5
		l-3.6-3.5l0,0c-44.7-45.3-72.4-98.3-73.3-163.7c-1.2,1.5-2,2.9-2.8,4.3c-8.9,16.8-16.6,34.2-23.8,51.8c-9.3,22.8-23,42-43.9,55.6
		c-19.2,12.5-40.5,17.7-63.1,18.7c-3.6,0.2-4.7,0.6-2.1,4.1C55.4,205.7,75.1,225.4,103.1,235.9z"/>
	<path class="st1" d="M230.1,67.1c-5.4,14.4-8.8,28.9-9.1,44.1c-0.6,29.5,7.2,57,19.9,83.3c2.7,5.7,5.8,11.3,8.7,16.9l0,0l1.5,3.5
		l3.5-3.6l0,0c45.3-44.7,98.3-72.4,163.7-73.3c-1.5-1.2-2.9-2-4.3-2.8c-16.8-8.9-34.2-16.6-51.8-23.8c-22.8-9.3-42-23-55.6-43.9
		c-12.5-19.2-17.7-40.5-18.7-63.1c-0.2-3.6-0.6-4.7-4.1-2.1C260.3,19.4,240.6,39.1,230.1,67.1z"/>
	<path class="st2" d="M398.9,194.1c-14.4-5.4-28.9-8.8-44.1-9.1c-29.5-0.6-57,7.2-83.3,19.9c-5.7,2.7-11.3,5.8-16.9,8.7l0,0L251,215
		l3.6,3.5l0,0c44.7,45.3,72.4,98.3,73.3,163.7c1.2-1.5,2-2.9,2.8-4.3c8.9-16.8,16.6-34.2,23.8-51.8c9.3-22.8,23-42,43.9-55.6
		c19.2-12.5,40.5-17.7,63.1-18.7c3.6-0.2,4.7-0.6,2.1-4.1C446.6,224.3,426.9,204.6,398.9,194.1z"/>
	<path class="st3" d="M271.9,362.9c5.4-14.4,8.8-28.9,9.1-44.1c0.6-29.5-7.2-57-19.9-83.3c-2.7-5.7-5.8-11.3-8.7-16.9l0,0L251,215
		l-3.5,3.6l0,0c-45.3,44.7-98.3,72.4-163.7,73.3c1.5,1.2,2.9,2,4.3,2.8c16.8,8.9,34.2,16.6,51.8,23.8c22.8,9.3,42,23,55.6,43.9
		c12.5,19.2,17.7,40.5,18.7,63.1c0.2,3.6,0.6,4.7,4.1,2.1C241.7,410.6,261.4,390.9,271.9,362.9z"/>
</g>
</svg>
